<svg xmlns="http://www.w3.org/2000/svg" xmlns:xlink="http://www.w3.org/1999/xlink" viewBox="0 0 239.15 39.76"><defs><symbol id="a" viewBox="0 0 54.2 61.94"><path d="M54.2,57.28v4.66H33.7V56.28l1.69-.3c1.49-.18,2.27-.89,2.27-2.17a6,6,0,0,0-1.28-3.76L29.94,39.53,24.19,50.05C23,52.22,22.3,53.81,22.3,54.7a3.27,3.27,0,0,0,.7,2.38v4.86H0V55.5c3.17-.41,4.86-.61,6.25-1.89a10.77,10.77,0,0,0,2.48-3.27L21.11,26.86V21.11A57,57,0,0,0,17.64,1.28V0H41.13V6.55l-2.88.39c-2.56.39-3.77,1-3.77,4.26V29L48.36,50.64A30.3,30.3,0,0,0,54.2,57.28Z" fill="#304587"/></symbol><symbol id="b" viewBox="0 0 45.97 49.05"><path d="M46,25.86c0,12.48-8.22,23.19-22.59,23.19C11.3,49.05,0,39.23,0,23.48,0,8.72,9.7,0,22.59,0,36.06,0,46,11.39,46,25.86ZM31.8,24.08c0-11.5-4.25-14.47-7.92-14.47-7,0-9.72,4.75-9.72,15.86s4.47,14,7.93,14C27.14,39.44,31.8,37.36,31.8,24.08Z" fill="#304587"/></symbol><symbol id="c" viewBox="0 0 57.58 47.56"><path d="M57.58,1.48V7.92l-4.27.41c-1.78.19-3.47.89-3.47,4.55V28.53c0,8.83.8,13.19,2.38,17.75v1.28H29.73V41l3.07-.49c1.89-.4,3-1.3,3-4.47V23.88c0-5.75-.39-7.24-2-9.82C31.7,10.89,29.73,10,27.34,10c-4.36,0-6.43,3.47-6.43,9v9.7c0,8.82.59,13.19,2,17.55v1.28H0V41l3-.3c3.08-.39,4-1.49,4-5.74,0-3.46,0-4.35-.1-7.23-.11-2.09-.11-6.34-.11-9.42C6.73,7.23,13,0,24.47,0c5.75,0,9.81,3.47,12.69,9,.29-2.19.59-5.25.89-7.54Z" fill="#304587"/></symbol><symbol id="d" viewBox="0 0 48.84 61.94"><path d="M48.84,15.27H42.11A15.35,15.35,0,0,0,29.42,8.63H26.75c-3.27,0-4.86.78-4.86,6.53V31.52c0,17.14.89,23,3.17,29.12v1.3H0V55.5l2.67-.41c3.27-.5,4.25-1,4.25-6.14V29c0-12.19-.59-20.31-2.67-27.84V0H44.69C45.88,5,47.86,11.89,48.84,15.27Z" fill="#ee2c36"/></symbol><symbol id="e" viewBox="0 0 42.02 49.05"><path d="M42,21v5.36c0,11.59-5,22.69-18.83,22.69C8.42,49.05,0,36.56,0,22.39,0,11,7.33,0,21.59,0c11.8,0,16.16,5.05,19.93,9.81l-4.47,4.75A18.69,18.69,0,0,0,24.77,10c-4.86,0-10.21,3.08-10.5,11.2,3.86-.09,9-.2,12.68-.2ZM28.53,30.92c0-1-.3-1.79-1.39-1.79h-13c.4,7.43,4,10.21,7.23,10.21C26.66,39.34,28.53,35.38,28.53,30.92Z" fill="#ee2c36"/></symbol><symbol id="f" viewBox="0 0 45.09 49.05"><path d="M45.09,1.48V8c-4,.39-5.06,1.28-5.06,6.53V30.81C40,43,33.09,49.05,21,49.05c-8.24,0-14.08-2.67-17-4.66A107.18,107.18,0,0,0,1.39,33H7.83c1.69,3.47,4.76,5.45,10.31,5.45,5.94,0,7.83-1.59,7.83-6.54V29.83l-3.38-.11C7.53,29.33,0,23.09,0,14.27,0,6.34,5,0,16,0,23,0,25.67,2.58,28.25,7.53a34.5,34.5,0,0,1,1.88-6.05ZM26,16.45c0-4.17-2.28-7.14-6.55-7.14C16.36,9.31,14,11.2,14,15.06c0,3.36,2.19,6.64,9.81,6.64H26Z" fill="#ee2c36"/></symbol><symbol id="g" viewBox="0 0 39.05 47.06"><path d="M39.05,33c-.6,4-1.19,10.5-1.49,13.47a21.08,21.08,0,0,1-5,.59c-4.27,0-9.22-3.56-11.7-8.22a37.64,37.64,0,0,1-1.38,7.24H0V39.44l4.47-.6c1.67-.2,3.36-1.18,3.36-4.36V20.41a104.92,104.92,0,0,0-2.38-19V0H29.23V6.55L24.48,7c-1.89.2-2.57,1.6-2.57,4.17v13c0,4.17.18,5.27,1.48,7.53,1.49,2.69,3.47,3.77,5.45,3.77A5.22,5.22,0,0,0,33.3,33Z" fill="#ee2c36"/></symbol><symbol id="h" viewBox="0 0 58.27 47.56"><path d="M58.27,0V6.55l-3.77.39c-3.06.29-4,1.28-4,5.45,0,3.47,0,7.13.09,10,.09,2.08.2,4.06.2,7.14,0,12-5.45,18-17.43,18-5.75,0-10.41-4.86-12.6-9-.18,1.78-1,6.14-1.28,7.53H0V39.53l4.47-.59c2-.3,3.26-.89,3.26-4.36V19.13c0-8.72-.89-13.38-2.37-17.85V0H27.75V6.25l-3,.69c-1.89.39-3,1.19-3,4.36V24.47c0,5,.19,6.34,1.67,8.83s4.18,4.15,6.46,4.15c5,0,6.83-2,6.83-8.92V18.92c0-8.81-.6-12.87-2.08-17.64V0Z" fill="#ee2c36"/></symbol><symbol id="i" viewBox="0 0 34.98 58.75"><path d="M35,5.94l-2.67,5.54c-2.58-1.68-4.17-2.37-6-2.37-4,0-4.75,2.28-4.75,6.44V25.86c0,3,.09,10.2.3,12.69,4.36,0,7.92-.11,12.18-.5,0,2.47.3,6.34.49,9H22c.2,3.86.2,7.83.69,11.69H14.86C12.69,50.83,9.72,47.06.69,43.8L0,38.55H8.13c-.5-7.64-1-15.17-1-22.71C7.14,5.94,11.39,0,21.91,0A16.44,16.44,0,0,1,35,5.94Z" fill="#ee2c36"/></symbol></defs><title>main-logo-2</title><path d="M246.78,36.51A4.74,4.74,0,0,1,241.85,41H12.55a4.74,4.74,0,0,1-4.93-4.52V5.78a4.74,4.74,0,0,1,4.93-4.51h229.3a4.74,4.74,0,0,1,4.93,4.51Z" transform="translate(-7.62 -1.27)" fill="#fff"/><path d="M43.67,13.62a6.1,6.1,0,1,1-6.09-6.09,6.09,6.09,0,0,1,6.09,6.09" transform="translate(-7.62 -1.27)" fill="#304587"/><path d="M43.67,33.12H31.48V21.82H43.67Z" transform="translate(-7.62 -1.27)" fill="#304587"/><path d="M28.21,13.62a6.1,6.1,0,1,1-6.1-6.09,6.1,6.1,0,0,1,6.1,6.09" transform="translate(-7.62 -1.27)" fill="#ee2c36"/><path d="M28.21,33.12H16V21.82H28.21Z" transform="translate(-7.62 -1.27)" fill="#ee2c36"/><use width="54.2" height="61.94" transform="matrix(0.42, 0, 0, -0.42, 48.63, 32.4)" xlink:href="#a"/><use width="45.97" height="49.05" transform="matrix(0.42, 0, 0, -0.42, 70.37, 33.07)" xlink:href="#b"/><use width="57.58" height="47.56" transform="matrix(0.42, 0, 0, -0.42, 90.71, 33.07)" xlink:href="#c"/><use width="48.84" height="61.94" transform="matrix(0.42, 0, 0, -0.42, 116.08, 32.44)" xlink:href="#d"/><use width="42.02" height="49.05" transform="matrix(0.42, 0, 0, -0.42, 137.62, 33.24)" xlink:href="#e"/><use width="45.09" height="49.05" transform="matrix(0.42, 0, 0, -0.42, 157.53, 33.12)" xlink:href="#f"/><use width="39.05" height="47.06" transform="matrix(0.42, 0, 0, -0.42, 177.22, 32.56)" xlink:href="#g"/><use width="58.27" height="47.56" transform="matrix(0.42, 0, 0, -0.42, 194.3, 32.43)" xlink:href="#h"/><use width="34.98" height="58.75" transform="matrix(0.42, 0, 0, -0.42, 219.2, 32.82)" xlink:href="#i"/></svg>